<?xml version="1.0" encoding="utf-8"?>
<!-- Generator: Adobe Illustrator 27.5.0, SVG Export Plug-In . SVG Version: 6.00 Build 0)  -->
<svg version="1.1" id="Capa_1" xmlns="http://www.w3.org/2000/svg" xmlns:xlink="http://www.w3.org/1999/xlink" x="0px" y="0px"
	 viewBox="0 0 100 100" style="enable-background:new 0 0 100 100;" xml:space="preserve">
<style type="text/css">
	.st0{fill:#FFFFFF;}
</style>
<path class="st0" d="M27.8,87.5c-4.4,0-8.9-4.4-11.1-6.2C5.6,72.5,2.2,69.4,0,67.5v26.2c0,3.5,2.5,6.2,5.6,6.2H50
	c3.1,0,5.6-2.8,5.6-6.2V67.5c-2.2,1.9-5.6,5-16.7,13.8C36.7,83.1,32.2,87.5,27.8,87.5z M50,50H5.6C2.5,50,0,52.8,0,56.2v3.1
	c4.4,3.8,3.9,3.8,20,16.9c1.7,1.2,5,5,7.8,5s6.1-3.8,7.8-4.4c16.1-13.1,15.6-13.1,20-16.9v-3.8C55.6,52.8,53.1,50,50,50z M94.4,31.2
	H38.9c-3.1,0-5.6,2.8-5.6,6.2v6.2H50c5.8,0,10.5,5,11.1,11.3l0.1,0v26.2h33.3c3.1,0,5.6-2.8,5.6-6.2V37.5
	C100,34,97.5,31.2,94.4,31.2z M88.9,56.2H77.8V43.8h11.1V56.2z M27.8,37.5c0-6.9,5-12.5,11.1-12.5h38.9V6.2c0-3.5-2.5-6.2-5.6-6.2
	H16.7c-3.1,0-5.6,2.8-5.6,6.2v37.5h16.7V37.5z"/>
</svg>
