<?xml version="1.0" encoding="utf-8"?>
<!-- Generator: Adobe Illustrator 27.5.0, SVG Export Plug-In . SVG Version: 6.00 Build 0)  -->
<svg version="1.1" id="Capa_1" xmlns="http://www.w3.org/2000/svg" xmlns:xlink="http://www.w3.org/1999/xlink" x="0px" y="0px"
	 viewBox="0 0 100 100" style="enable-background:new 0 0 100 100;" xml:space="preserve">
<style type="text/css">
	.st0{fill:#FFFFFF;}
</style>
<path class="st0" d="M55.3,100v-7.5c3.8-0.5,7.4-1.5,11-3c3.6-1.5,6.9-3.4,10-5.8l5.1,5.5c-3.8,3.2-7.9,5.7-12.3,7.4
	C64.7,98.4,60.1,99.5,55.3,100L55.3,100z M89,81.4l-5.4-5.2c2.3-3,4.1-6.3,5.6-9.7c1.5-3.5,2.5-7.2,3.1-11.2h7.6
	c-0.7,5-1.9,9.7-3.8,14.1C94.3,73.8,91.9,77.8,89,81.4z M92.4,44.7c-0.6-4-1.6-7.7-3.1-11.2c-1.5-3.4-3.4-6.7-5.6-9.8l5.4-5.2
	c3.2,4.2,5.6,8.3,7.3,12.4c1.7,4.1,2.9,8.7,3.8,13.7H92.4z M44.6,100c-12.7-1.4-23.3-6.9-31.8-16.4C4.3,74.1,0,62.9,0,50
	s4.3-24.1,12.8-33.6C21.3,6.9,31.9,1.4,44.6,0v7.5C34,9,25.2,13.7,18.1,21.8S7.5,39.3,7.5,50S11,70.1,18.1,78.2S34,91,44.6,92.5V100
	z M76.3,16.3c-3.3-2.3-6.7-4.1-10.2-5.6C62.6,9.3,59,8.2,55.5,7.5V0c4.5,0.7,9,1.9,13.4,3.6c4.4,1.8,8.6,4.1,12.4,7.2L76.3,16.3z
	 M50,76.5c-7.1-6-12.4-11.6-15.8-16.8c-3.4-5.2-5.1-9.9-5.1-14.3c0-6.6,2.1-11.9,6.3-15.8c4.2-3.9,9.1-5.8,14.6-5.8
	s10.4,1.9,14.6,5.8c4.2,3.9,6.3,9.1,6.3,15.8c0,4.4-1.7,9.1-5.1,14.3C62.4,64.9,57.1,70.5,50,76.5z M50,50.3c1.6,0,2.9-0.5,4-1.6
	c1.1-1.1,1.6-2.4,1.6-4c0-1.4-0.5-2.7-1.6-3.9c-1.1-1.2-2.4-1.8-4-1.8s-2.9,0.6-4,1.8c-1.1,1.2-1.6,2.5-1.6,3.9c0,1.6,0.5,2.9,1.6,4
	C47.1,49.7,48.4,50.3,50,50.3z"/>
</svg>
