<?xml version="1.0" encoding="utf-8"?>
<!-- Generator: Adobe Illustrator 27.5.0, SVG Export Plug-In . SVG Version: 6.00 Build 0)  -->
<svg version="1.1" id="Capa_1" xmlns="http://www.w3.org/2000/svg" xmlns:xlink="http://www.w3.org/1999/xlink" x="0px" y="0px"
	 viewBox="0 0 1057 950" style="enable-background:new 0 0 1057 950;" xml:space="preserve">
<style type="text/css">
	.st0{fill:#EFF1FD;}
	.st1{fill:#F95858;}
	.st2{fill:#FF3636;}
	.st3{fill:#FFFFFF;}
	.st4{fill:#F77272;}
	.st5{fill:#F79797;}
	.st6{fill:#B54D4D;}
	.st7{fill:#C7CAE4;}
	.st8{fill:#E4E4E4;}
	.st9{fill:#F49595;}
	.st10{fill:#FFA6DE;}
	.st11{fill:#726CF8;}
	.st12{fill:#5FCAFD;}
	.st13{fill:none;stroke:#5FCAFD;stroke-width:20;}
	.st14{fill:none;stroke:#FFA6DE;stroke-width:20;}
	.st15{fill:none;stroke:#726CF8;stroke-width:15;}
	.st16{fill:#9896F8;}
	.st17{fill:#FE55BF;}
	.st18{fill:#8E57FB;}
</style>
<circle class="st0" cx="514" cy="471" r="400"/>
<path class="st1" d="M305.3,233H158.7c-5,0-9.7,1.8-13.2,5.1c-3.5,3.2-5.5,7.6-5.5,12.2v74c0,4.6,2,9,5.5,12.2
	c3.5,3.2,8.3,5.1,13.2,5.1h146.5c5,0,9.7-1.8,13.2-5.1c3.5-3.2,5.5-7.6,5.5-12.2v-74c0-4.6-2-9-5.5-12.2
	C315,234.8,310.2,233,305.3,233L305.3,233z"/>
<path class="st2" d="M305.3,238H158.7c-3.5,0-6.9,1.3-9.4,3.6c-2.5,2.3-3.9,5.4-3.9,8.7v73.9c0,3.3,1.4,6.4,3.9,8.7
	c2.5,2.3,5.9,3.6,9.4,3.6h146.5c3.5,0,6.9-1.3,9.4-3.6c2.5-2.3,3.9-5.4,3.9-8.7v-73.9c0-3.3-1.4-6.4-3.9-8.7
	C312.2,239.3,308.8,238,305.3,238z"/>
<path class="st1" d="M294.1,367.1l-31.3-28.9l36.9,1.1v25.6c0,0.6-0.2,1.2-0.5,1.7c-0.4,0.5-0.9,0.9-1.5,1.1
	c-0.4,0.2-0.8,0.2-1.3,0.2c-0.4,0-0.9-0.1-1.3-0.2S294.4,367.4,294.1,367.1L294.1,367.1z"/>
<path class="st3" d="M199.7,296.6c5.6,0,10.1-4.2,10.1-9.3c0-5.2-4.5-9.3-10.1-9.3s-10.1,4.2-10.1,9.3
	C189.6,292.4,194.1,296.6,199.7,296.6z"/>
<path class="st3" d="M232,296.6c5.6,0,10.1-4.2,10.1-9.3c0-5.2-4.5-9.3-10.1-9.3c-5.6,0-10.1,4.2-10.1,9.3
	C221.9,292.4,226.4,296.6,232,296.6z"/>
<path class="st3" d="M264.3,296.6c5.6,0,10.1-4.2,10.1-9.3c0-5.2-4.5-9.3-10.1-9.3c-5.6,0-10.1,4.2-10.1,9.3
	C254.2,292.4,258.7,296.6,264.3,296.6z"/>
<path class="st4" d="M680.8,458.1H320.2c-5.6,0-11,2.4-15,6.6c-4,4.2-6.2,9.9-6.2,15.9v237c0,5.9,2.2,11.7,6.2,15.9
	c4,4.2,9.4,6.6,15,6.6h360.5c5.6,0,11-2.4,15-6.6c4-4.2,6.2-9.9,6.2-15.9v-237c0-5.9-2.2-11.7-6.2-15.9
	C691.8,460.5,686.4,458.1,680.8,458.1z"/>
<path class="st5" d="M680.8,458.1H320.2c-5.6,0-11,2.4-15,6.6c-4,4.2-6.2,9.9-6.2,15.9v237c0,5.9,2.2,11.7,6.2,15.9
	c4,4.2,9.4,6.6,15,6.6h360.5c5.6,0,11-2.4,15-6.6c4-4.2,6.2-9.9,6.2-15.9v-237c0-5.9-2.2-11.7-6.2-15.9
	C691.8,460.5,686.4,458.1,680.8,458.1z M687.7,628.4c-0.1,24.1-9.1,47.3-25.2,64.4c-16.1,17.2-37.8,27-60.7,27.4
	c-36.6,0.5,20.2,0.7-23.9,0.7c-100.9,0-206.1-1-245.3-1.7c-5.2-0.1-10.1-2.4-13.7-6.2c-3.6-3.9-5.7-9.1-5.7-14.6V480.5
	c0-2,0.7-3.8,2-5.2c1.3-1.4,3.1-2.2,4.9-2.2h360.5c1.8,0,3.6,0.8,4.9,2.2c1.3,1.4,2,3.2,2.1,5.2V628.4z"/>
<path class="st6" d="M636.4,321.6H361.7c-2.4,0-4.8,0.8-6.8,2.3s-3.5,3.6-4.3,6l-42.4,125.7c-0.6,1.9-0.8,3.9-0.6,5.9
	c0.3,2,1,3.9,2,5.5c1.1,1.6,2.5,3,4.2,3.9c1.7,0.9,3.5,1.4,5.4,1.4l368.4,0.7h0c1.9,0,3.9-0.5,5.6-1.5c1.7-1,3.2-2.4,4.2-4.1
	s1.7-3.7,1.9-5.7c0.2-2.1-0.1-4.1-0.9-6l-0.6,0.3l0.6-0.3l-51.3-126.4c-0.9-2.2-2.4-4.1-4.3-5.5
	C640.9,322.3,638.7,321.6,636.4,321.6L636.4,321.6z"/>
<path class="st6" d="M699.4,458.2c0,1.7-0.3,3.4-1,4.9l-51.3,97.3c-0.9,2.2-2.4,4.1-4.3,5.5c-1.9,1.3-4.2,2.1-6.5,2.1H361.7
	c-2.4,0-4.8-0.8-6.8-2.3c-2-1.5-3.5-3.6-4.3-6l-42.4-96.6c-0.5-1.5-0.7-3.2-0.7-4.8c0.1-1.6,0.5-3.2,1.1-4.7
	c0.7-1.5,1.6-2.8,2.7-3.9c1.1-1.1,2.5-1.9,3.9-2.5c1.3-0.5,2.6-0.7,3.9-0.7l45-0.1l18.4,0l241.7-0.4l18.4,0l45-0.1h0
	c3.1,0,6.1,1.3,8.3,3.6C698.2,451.8,699.4,454.9,699.4,458.2L699.4,458.2z"/>
<path class="st5" d="M347.3,635.9c5.4,0,80.2,4.8,80.2,10.6c0,5.8-74.8,10.3-80.2,10.3c-2.6,0-5.1-1.1-7-3c-1.9-2-2.9-4.6-2.9-7.4
	c0-2.8,1-5.4,2.9-7.4C342.1,637,344.7,635.9,347.3,635.9L347.3,635.9z"/>
<path class="st7" d="M619.3,245.1H387.7c-6.2,0-12.2,2.6-16.5,7.2c-4.4,4.6-6.9,10.9-6.9,17.5V568h272.1c2.2,0,4.4-0.7,6.3-1.9
	V269.8c0-6.6-2.5-12.8-6.9-17.5C631.4,247.7,625.5,245.1,619.3,245.1z"/>
<path class="st3" d="M530.9,265.2H404c-5.7,0-11.1,2.4-15.1,6.6c-4,4.2-6.2,9.9-6.3,15.9V568h241.7V363.8c0-26.2-9.9-51.2-27.4-69.7
	C579.4,275.6,555.6,265.2,530.9,265.2L530.9,265.2z"/>
<path class="st8" d="M583.1,543.1H423.8c-1.4,0-2.7,0.6-3.7,1.6c-1,1-1.5,2.4-1.5,3.9c0,1.5,0.5,2.8,1.5,3.9c1,1,2.3,1.6,3.7,1.6
	h159.3c1.4,0,2.7-0.6,3.7-1.6c1-1,1.5-2.4,1.5-3.9c0-1.5-0.5-2.8-1.5-3.9C585.8,543.6,584.5,543.1,583.1,543.1L583.1,543.1z"/>
<path class="st8" d="M583.1,521.4H423.8c-1.4,0-2.7,0.6-3.7,1.6c-1,1-1.5,2.4-1.5,3.9s0.5,2.9,1.5,3.9c1,1,2.3,1.6,3.7,1.6h159.3
	c1.4,0,2.7-0.6,3.7-1.6c1-1,1.5-2.4,1.5-3.9s-0.5-2.9-1.5-3.9C585.8,522,584.5,521.4,583.1,521.4L583.1,521.4z"/>
<path class="st8" d="M492.9,499.7h-69.1c-1.4,0-2.7,0.6-3.7,1.6c-1,1-1.5,2.4-1.5,3.9c0,1.5,0.5,2.8,1.5,3.9c1,1,2.3,1.6,3.7,1.6
	h69.1c1.4,0,2.7-0.6,3.7-1.6c1-1,1.5-2.4,1.5-3.9c0-1.5-0.5-2.9-1.5-3.9C495.6,500.3,494.2,499.7,492.9,499.7L492.9,499.7z"/>
<path class="st8" d="M583.1,454.3H423.8c-1.4,0-2.7,0.6-3.7,1.6c-1,1-1.5,2.4-1.5,3.9c0,1.5,0.5,2.9,1.5,3.9c1,1,2.3,1.6,3.7,1.6
	h159.3c1.4,0,2.7-0.6,3.7-1.6c1-1,1.5-2.4,1.5-3.9c0-1.5-0.5-2.9-1.5-3.9C585.8,454.8,584.5,454.3,583.1,454.3z"/>
<path class="st8" d="M583.1,432.6H423.8c-1.4,0-2.7,0.6-3.7,1.6c-1,1-1.5,2.4-1.5,3.9c0,1.5,0.5,2.9,1.5,3.9c1,1,2.3,1.6,3.7,1.6
	h159.3c1.4,0,2.7-0.6,3.7-1.6c1-1,1.5-2.4,1.5-3.9c0-1.5-0.5-2.8-1.5-3.9C585.8,433.2,584.5,432.6,583.1,432.6L583.1,432.6z"/>
<path class="st8" d="M492.9,410.9h-69.1c-1.4,0-2.7,0.6-3.7,1.6c-1,1-1.5,2.4-1.5,3.9s0.5,2.9,1.5,3.9c1,1,2.3,1.6,3.7,1.6h69.1
	c1.4,0,2.7-0.6,3.7-1.6c1-1,1.5-2.4,1.5-3.9s-0.5-2.9-1.5-3.9C495.6,411.5,494.2,410.9,492.9,410.9z"/>
<path class="st9" d="M583.1,365.5H423.8c-1.4,0-2.7,0.6-3.7,1.6c-1,1-1.5,2.4-1.5,3.9c0,1.5,0.5,2.9,1.5,3.9c1,1,2.3,1.6,3.7,1.6
	h159.3c1.4,0,2.7-0.6,3.7-1.6c1-1,1.5-2.4,1.5-3.9c0-1.5-0.5-2.9-1.5-3.9C585.8,366.1,584.5,365.5,583.1,365.5z"/>
<path class="st9" d="M583.1,343.8H423.8c-1.4,0-2.7,0.6-3.7,1.6c-1,1-1.5,2.4-1.5,3.9c0,1.5,0.5,2.9,1.5,3.9c1,1,2.3,1.6,3.7,1.6
	h159.3c1.4,0,2.7-0.6,3.7-1.6c1-1,1.5-2.4,1.5-3.9c0-1.5-0.5-2.9-1.5-3.9C585.8,344.4,584.5,343.8,583.1,343.8z"/>
<path class="st9" d="M492.9,322.1h-69.1c-1.4,0-2.7,0.6-3.7,1.6c-1,1-1.5,2.4-1.5,3.9s0.5,2.9,1.5,3.9c1,1,2.3,1.6,3.7,1.6h69.1
	c1.4,0,2.7-0.6,3.7-1.6c1-1,1.5-2.4,1.5-3.9s-0.5-2.9-1.5-3.9C495.6,322.7,494.2,322.1,492.9,322.1z"/>
<path class="st9" d="M634,287.4c22.3,0,40.4-19.1,40.4-42.7c0-23.6-18.1-42.7-40.4-42.7c-22.3,0-40.4,19.1-40.4,42.7
	C593.6,268.3,611.7,287.4,634,287.4z"/>
<path class="st3" d="M628.5,266.9c-0.7,0-1.4-0.2-2-0.5c-0.6-0.3-1.2-0.8-1.6-1.4l-11-15.5c-0.4-0.5-0.6-1.1-0.8-1.7
	c-0.1-0.6-0.2-1.2-0.1-1.9c0.1-0.6,0.3-1.2,0.6-1.8c0.3-0.5,0.7-1,1.2-1.4c0.5-0.4,1-0.6,1.6-0.8c0.6-0.2,1.2-0.2,1.8-0.1
	c0.6,0.1,1.1,0.3,1.7,0.6c0.5,0.3,1,0.7,1.3,1.2l7.2,10.2l18.5-29.4c0.7-1,1.7-1.8,2.9-2c1.2-0.2,2.4,0,3.4,0.7s1.7,1.8,1.9,3
	c0.2,1.2,0,2.5-0.7,3.6l-22.1,35c-0.4,0.6-0.9,1.2-1.6,1.5c-0.6,0.4-1.3,0.6-2.1,0.6C628.6,266.9,628.5,266.9,628.5,266.9z"/>
<g>
	<path class="st10" d="M237,574.7l27,9c-11.2-11.1-20.8-28.6-26.1-42.5c-8.5,13.1-22.3,29.1-35.9,38.8l28.4-5.6
		c-16.9,62.8-82.5,108.5-158.1,109.2l0,4.8C151.3,687.6,219.7,640.1,237,574.7L237,574.7z"/>
</g>
<path class="st11" d="M935.1,264.3l-8.9-18.5l-19.1-8.7l19.1-8.7l8.9-18.5l8.9,18.5l19.1,8.7l-19.1,8.7L935.1,264.3z M952.2,321.2
	l-6.1-12.4l-12.8-5.9l12.8-5.9l6.1-12.4l6.1,12.4l12.8,5.9l-12.8,5.9L952.2,321.2z M845.9,367.5l-2-18.1c-1.9-0.3-3.9-0.9-5.9-1.8
	c-2-0.9-3.8-2-5.3-3.3l-15.8,6.5L799,322.4l15.4-9.8c-0.7-2.2-1-4.2-1-5.9c0-1.7,0.3-3.7,1-5.9l-15.4-9.8l17.9-28.3l15.8,6.5
	c1.5-1.3,3.2-2.4,5.3-3.3c2-0.9,4-1.5,5.9-1.8l2-18.1H880l2,18.1c1.9,0.3,3.9,0.9,5.9,1.8c2,0.9,3.8,2,5.3,3.3l15.8-6.5l17.9,28.3
	l-15.4,9.8c0.7,2.2,1,4.2,1,5.9c0,1.7-0.3,3.7-1,5.9l15.4,9.8l-17.9,28.4l-15.8-6.5c-1.5,1.3-3.2,2.4-5.3,3.3c-2,0.9-4,1.5-5.9,1.8
	l-2,18.1H845.9z M863,329.3c6.8,0,12.4-2.1,16.8-6.4c4.4-4.3,6.6-9.7,6.6-16.2c0-6.6-2.2-12-6.6-16.2c-4.4-4.3-10-6.4-16.8-6.4
	c-6.8,0-12.4,2.1-16.8,6.4c-4.4,4.3-6.6,9.7-6.6,16.2c0,6.6,2.2,12,6.6,16.2C850.6,327.2,856.2,329.3,863,329.3z M863,317.5
	c-3.2,0-5.9-1-8-3.1c-2.1-2-3.1-4.6-3.1-7.8c0-3.1,1-5.7,3.1-7.8s4.8-3.1,8-3.1s5.9,1,8,3.1s3.1,4.6,3.1,7.8c0,3.2-1,5.7-3.1,7.8
	C868.9,316.5,866.2,317.5,863,317.5z M856.1,355.7h13.8l1.6-15c3.9-0.9,7.5-2.2,10.8-3.9c3.2-1.7,6.2-3.9,8.9-6.7l13.2,5.7l6.7-10.2
	l-12.6-8.7c1.5-3.3,2.2-6.7,2.2-10.2c0-3.5-0.7-7-2.2-10.2l12.6-8.7l-6.7-10.2l-13.2,5.7c-2.7-2.8-5.7-5-8.9-6.7
	c-3.2-1.7-6.8-3-10.8-3.9l-1.6-15h-13.8l-1.6,15c-3.9,0.9-7.5,2.2-10.8,3.9c-3.2,1.7-6.2,3.9-8.9,6.7l-13.2-5.7l-6.7,10.2l12.6,8.7
	c-1.5,3.3-2.2,6.7-2.2,10.2c0,3.5,0.7,7,2.2,10.2l-12.6,8.7l6.7,10.2l13.2-5.7c2.7,2.8,5.7,5,8.9,6.7c3.2,1.7,6.8,3,10.8,3.9
	L856.1,355.7z"/>
<ellipse class="st12" cx="508" cy="70.5" rx="71" ry="70.5"/>
<path class="st3" d="M472.5,95.2v-5.3h7.5v-27c0-4.8,1.5-9.2,4.4-13.1c2.9-3.9,6.8-6.4,11.6-7.4v-2.6c0-1.4,0.5-2.5,1.5-3.3
	c1-0.9,2.1-1.3,3.5-1.3s2.5,0.4,3.5,1.3c1,0.9,1.5,2,1.5,3.3v2.6c1.5,0.3,3,0.8,4.5,1.5c1.5,0.7,2.8,1.6,3.9,2.6l-1.9,1.9l-1.9,1.9
	c-1.3-1.1-2.8-1.9-4.5-2.4c-1.7-0.5-3.4-0.8-5.1-0.8c-4.4,0-8.1,1.5-11.1,4.5c-3,3-4.5,6.7-4.5,11.1v27h31.3v-13h5.3v13h7.4v5.3
	H472.5z M500.9,105.8c-2,0-3.6-0.7-5-2.1c-1.4-1.4-2.1-3-2.1-5H508c0,1.9-0.7,3.6-2.1,5C504.5,105.1,502.9,105.8,500.9,105.8z
	 M526.6,74V62.6h-11.5v-5.3h11.5V45.8h5.3v11.5h11.5v5.3H532V74H526.6z"/>
<circle class="st13" cx="222" cy="836" r="25"/>
<circle class="st14" cx="879" cy="106" r="25"/>
<circle class="st15" cx="27.5" cy="550.5" r="20"/>
<circle class="st16" cx="1032" cy="611" r="25"/>
<circle class="st17" cx="702" cy="925" r="25"/>
<circle class="st17" cx="1032" cy="197" r="25"/>
<path class="st18" d="M854,801c46.9,0,85-38.1,85-85s-38.1-85-85-85s-85,38.1-85,85S807.1,801,854,801z"/>
<path class="st3" d="M904.9,709.2h-10.6c-1.6-9.7-6.7-18.5-14.3-24.7c-17.4-14.4-43.2-11.9-57.6,5.5c0,0.1-0.1,0.1-0.1,0.2
	c-1.2,1.5-0.9,3.6,0.6,4.8c1.5,1.2,3.6,0.9,4.8-0.6c6.3-7.6,15.7-12.4,26.3-12.4c16.2,0,30.2,11.4,33.4,27.3h-9.3
	c-0.4,0-0.8,0.1-1.1,0.4c-0.7,0.6-0.8,1.7-0.2,2.4l13.4,16.1c0.1,0.1,0.1,0.2,0.2,0.2c0.7,0.6,1.8,0.5,2.4-0.2l13.4-16.1
	c0.3-0.3,0.4-0.7,0.4-1.1C906.6,709.9,905.9,709.2,904.9,709.2L904.9,709.2L904.9,709.2z"/>
<path class="st3" d="M885.1,737.1c-1.5-1.2-3.6-0.9-4.8,0.6c-5,6-11.8,10.1-19.5,11.7c-18.5,3.8-36.5-8.1-40.3-26.6h9.3
	c0.9,0,1.7-0.8,1.7-1.7c0-0.4-0.1-0.8-0.4-1.1l-13.4-16.1c-0.6-0.7-1.7-0.8-2.4-0.2c-0.1,0.1-0.2,0.1-0.2,0.2L801.8,720
	c-0.6,0.7-0.5,1.8,0.2,2.4c0.3,0.3,0.7,0.4,1.1,0.4h10.6c1.6,9.7,6.7,18.5,14.3,24.7c17.4,14.4,43.2,11.9,57.6-5.5
	c0-0.1,0.1-0.1,0.1-0.2C886.9,740.4,886.6,738.2,885.1,737.1L885.1,737.1L885.1,737.1z"/>
</svg>
