<?xml version="1.0" encoding="utf-8"?>
<!-- Generator: Adobe Illustrator 27.5.0, SVG Export Plug-In . SVG Version: 6.00 Build 0)  -->
<svg version="1.1" id="Capa_1" xmlns="http://www.w3.org/2000/svg" xmlns:xlink="http://www.w3.org/1999/xlink" x="0px" y="0px"
	 viewBox="0 0 100 100" style="enable-background:new 0 0 100 100;" xml:space="preserve">
<style type="text/css">
	.st0{fill:#FFFFFF;}
</style>
<path class="st0" d="M93.8,100c-11.3,0-22.5-2.8-33.7-8.3C48.9,86.1,38.9,78.9,30,70S13.9,51.1,8.3,39.9C2.8,28.8,0,17.5,0,6.2
	C0,4.5,0.6,3,1.8,1.8C3,0.6,4.5,0,6.2,0h19.4c1.3,0,2.4,0.4,3.4,1.3c1,0.9,1.6,2.1,1.9,3.5l3.7,17.5c0.2,1.3,0.2,2.5-0.1,3.5
	c-0.2,1.1-0.7,2-1.5,2.7l-13.9,14c5.2,8.6,11,16.1,17.4,22.5s13.7,11.8,21.9,16.2l13.2-13.6c0.9-1,2-1.7,3.2-2.2s2.4-0.5,3.6-0.2
	L95.1,69c1.4,0.3,2.5,1,3.5,2.1c0.9,1.1,1.4,2.4,1.4,3.9v18.8c0,1.8-0.6,3.2-1.8,4.4C97,99.4,95.5,100,93.8,100z M15.1,35l11.3-11.4
	L23.2,8.3H8.3c0,3.6,0.6,7.6,1.7,11.9C11.1,24.5,12.8,29.4,15.1,35z M66.4,85.4c3.8,1.8,7.9,3.2,12.4,4.3c4.4,1.1,8.8,1.8,12.9,1.9
	V76.8l-14.3-2.9L66.4,85.4z"/>
</svg>
